<mxfile host="65bd71144e">
    <diagram id="_iM76MYS8qOPmsm7Uyij" name="Page-1">
        <mxGraphModel dx="1014" dy="946" grid="1" gridSize="10" guides="1" tooltips="1" connect="1" arrows="1" fold="1" page="0" pageScale="1" pageWidth="850" pageHeight="1100" math="0" shadow="0">
            <root>
                <mxCell id="0"/>
                <mxCell id="1" parent="0"/>
                <mxCell id="189" value="" style="rounded=0;whiteSpace=wrap;html=1;fontSize=16;" vertex="1" parent="1">
                    <mxGeometry x="-60" y="-30" width="40" height="20" as="geometry"/>
                </mxCell>
                <mxCell id="151" value="A" style="ellipse;whiteSpace=wrap;html=1;aspect=fixed;" vertex="1" parent="1">
                    <mxGeometry x="-55" y="45" width="30" height="30" as="geometry"/>
                </mxCell>
                <mxCell id="152" value="NULL" style="text;html=1;align=center;verticalAlign=middle;resizable=0;points=[];autosize=1;strokeColor=none;fillColor=none;" vertex="1" parent="1">
                    <mxGeometry x="-65" y="-35" width="50" height="30" as="geometry"/>
                </mxCell>
                <mxCell id="154" value="allgc" style="text;html=1;align=center;verticalAlign=middle;resizable=0;points=[];autosize=1;strokeColor=none;fillColor=none;" vertex="1" parent="1">
                    <mxGeometry x="-120" y="-35" width="50" height="30" as="geometry"/>
                </mxCell>
                <mxCell id="158" value="allgc" style="text;html=1;align=center;verticalAlign=middle;resizable=0;points=[];autosize=1;strokeColor=none;fillColor=none;" vertex="1" parent="1">
                    <mxGeometry x="-120" y="45" width="50" height="30" as="geometry"/>
                </mxCell>
                <mxCell id="159" value="" style="endArrow=classic;html=1;exitX=1;exitY=0.5;exitDx=0;exitDy=0;" edge="1" parent="1" source="151">
                    <mxGeometry width="50" height="50" relative="1" as="geometry">
                        <mxPoint x="260" y="345" as="sourcePoint"/>
                        <mxPoint x="20" y="60" as="targetPoint"/>
                    </mxGeometry>
                </mxCell>
                <mxCell id="170" value="&lt;font style=&quot;font-size: 12px;&quot;&gt;new&lt;/font&gt;" style="text;html=1;align=center;verticalAlign=middle;resizable=0;points=[];autosize=1;strokeColor=none;fillColor=none;" vertex="1" parent="1">
                    <mxGeometry x="-25" y="5" width="50" height="30" as="geometry"/>
                </mxCell>
                <mxCell id="180" value="allgc" style="text;html=1;align=center;verticalAlign=middle;resizable=0;points=[];autosize=1;strokeColor=none;fillColor=none;" vertex="1" parent="1">
                    <mxGeometry x="-120" y="125" width="50" height="30" as="geometry"/>
                </mxCell>
                <mxCell id="192" value="" style="shape=flexArrow;endArrow=classic;html=1;fontSize=12;" edge="1" parent="1">
                    <mxGeometry width="50" height="50" relative="1" as="geometry">
                        <mxPoint x="-40" as="sourcePoint"/>
                        <mxPoint x="-40" y="40" as="targetPoint"/>
                    </mxGeometry>
                </mxCell>
                <mxCell id="193" value="A" style="ellipse;whiteSpace=wrap;html=1;aspect=fixed;" vertex="1" parent="1">
                    <mxGeometry x="20" y="7.5" width="25" height="25" as="geometry"/>
                </mxCell>
                <mxCell id="194" value="" style="rounded=0;whiteSpace=wrap;html=1;fontSize=16;" vertex="1" parent="1">
                    <mxGeometry x="20" y="50" width="40" height="20" as="geometry"/>
                </mxCell>
                <mxCell id="195" value="NULL" style="text;html=1;align=center;verticalAlign=middle;resizable=0;points=[];autosize=1;strokeColor=none;fillColor=none;" vertex="1" parent="1">
                    <mxGeometry x="15" y="45" width="50" height="30" as="geometry"/>
                </mxCell>
                <mxCell id="196" value="" style="shape=flexArrow;endArrow=classic;html=1;fontSize=12;" edge="1" parent="1">
                    <mxGeometry width="50" height="50" relative="1" as="geometry">
                        <mxPoint x="-40.24" y="80" as="sourcePoint"/>
                        <mxPoint x="-40.24" y="120" as="targetPoint"/>
                    </mxGeometry>
                </mxCell>
                <mxCell id="197" value="&lt;font style=&quot;font-size: 12px;&quot;&gt;new&lt;/font&gt;" style="text;html=1;align=center;verticalAlign=middle;resizable=0;points=[];autosize=1;strokeColor=none;fillColor=none;" vertex="1" parent="1">
                    <mxGeometry x="-25" y="85" width="50" height="30" as="geometry"/>
                </mxCell>
                <mxCell id="198" value="B" style="ellipse;whiteSpace=wrap;html=1;aspect=fixed;" vertex="1" parent="1">
                    <mxGeometry x="20" y="87.5" width="25" height="25" as="geometry"/>
                </mxCell>
                <mxCell id="199" value="A" style="ellipse;whiteSpace=wrap;html=1;aspect=fixed;" vertex="1" parent="1">
                    <mxGeometry x="20" y="125" width="30" height="30" as="geometry"/>
                </mxCell>
                <mxCell id="200" value="" style="endArrow=classic;html=1;exitX=1;exitY=0.5;exitDx=0;exitDy=0;" edge="1" parent="1" source="199">
                    <mxGeometry width="50" height="50" relative="1" as="geometry">
                        <mxPoint x="340" y="425" as="sourcePoint"/>
                        <mxPoint x="100" y="140" as="targetPoint"/>
                    </mxGeometry>
                </mxCell>
                <mxCell id="201" value="" style="rounded=0;whiteSpace=wrap;html=1;fontSize=16;" vertex="1" parent="1">
                    <mxGeometry x="100" y="131" width="40" height="20" as="geometry"/>
                </mxCell>
                <mxCell id="202" value="NULL" style="text;html=1;align=center;verticalAlign=middle;resizable=0;points=[];autosize=1;strokeColor=none;fillColor=none;" vertex="1" parent="1">
                    <mxGeometry x="95" y="125" width="50" height="30" as="geometry"/>
                </mxCell>
                <mxCell id="204" value="B" style="ellipse;whiteSpace=wrap;html=1;aspect=fixed;" vertex="1" parent="1">
                    <mxGeometry x="-55" y="125" width="30" height="30" as="geometry"/>
                </mxCell>
                <mxCell id="205" value="" style="endArrow=classic;html=1;exitX=1;exitY=0.5;exitDx=0;exitDy=0;" edge="1" parent="1">
                    <mxGeometry width="50" height="50" relative="1" as="geometry">
                        <mxPoint x="-25" y="139.76" as="sourcePoint"/>
                        <mxPoint x="20" y="139.76" as="targetPoint"/>
                    </mxGeometry>
                </mxCell>
            </root>
        </mxGraphModel>
    </diagram>
    <diagram id="ouXvWICmlVundjtFWcuV" name="Page-2">
        <mxGraphModel dx="1143" dy="660" grid="0" gridSize="10" guides="1" tooltips="1" connect="1" arrows="1" fold="1" page="0" pageScale="1" pageWidth="850" pageHeight="1100" math="0" shadow="0">
            <root>
                <mxCell id="0"/>
                <mxCell id="1" parent="0"/>
                <mxCell id="sn1TwzaURbwhgX4UDGPd-155" value="" style="rounded=0;whiteSpace=wrap;html=1;strokeColor=#FFFFFF;fontSize=12;fontColor=#FF0000;fillColor=none;" vertex="1" parent="1">
                    <mxGeometry x="-180" y="1830" width="530" height="340" as="geometry"/>
                </mxCell>
                <mxCell id="sn1TwzaURbwhgX4UDGPd-61" value="" style="rounded=0;whiteSpace=wrap;html=1;strokeColor=#FFFFFF;fontSize=12;fontColor=#FF0000;fillColor=none;" vertex="1" parent="1">
                    <mxGeometry x="-180" y="390" width="530" height="340" as="geometry"/>
                </mxCell>
                <mxCell id="sn1TwzaURbwhgX4UDGPd-1" value="allgc" style="text;html=1;align=center;verticalAlign=middle;resizable=0;points=[];autosize=1;strokeColor=none;fillColor=none;" vertex="1" parent="1">
                    <mxGeometry x="-165" y="405.5" width="50" height="30" as="geometry"/>
                </mxCell>
                <mxCell id="sn1TwzaURbwhgX4UDGPd-2" value="A" style="ellipse;whiteSpace=wrap;html=1;aspect=fixed;" vertex="1" parent="1">
                    <mxGeometry x="205" y="405.5" width="30" height="30" as="geometry"/>
                </mxCell>
                <mxCell id="sn1TwzaURbwhgX4UDGPd-3" value="" style="endArrow=classic;html=1;exitX=1;exitY=0.5;exitDx=0;exitDy=0;" edge="1" parent="1" source="sn1TwzaURbwhgX4UDGPd-2">
                    <mxGeometry width="50" height="50" relative="1" as="geometry">
                        <mxPoint x="525" y="705.5" as="sourcePoint"/>
                        <mxPoint x="285" y="420.5" as="targetPoint"/>
                    </mxGeometry>
                </mxCell>
                <mxCell id="sn1TwzaURbwhgX4UDGPd-4" value="" style="rounded=0;whiteSpace=wrap;html=1;fontSize=16;" vertex="1" parent="1">
                    <mxGeometry x="285" y="411.5" width="40" height="20" as="geometry"/>
                </mxCell>
                <mxCell id="sn1TwzaURbwhgX4UDGPd-5" value="NULL" style="text;html=1;align=center;verticalAlign=middle;resizable=0;points=[];autosize=1;strokeColor=none;fillColor=none;" vertex="1" parent="1">
                    <mxGeometry x="280" y="405.5" width="50" height="30" as="geometry"/>
                </mxCell>
                <mxCell id="sn1TwzaURbwhgX4UDGPd-6" value="B" style="ellipse;whiteSpace=wrap;html=1;aspect=fixed;" vertex="1" parent="1">
                    <mxGeometry x="130" y="405.5" width="30" height="30" as="geometry"/>
                </mxCell>
                <mxCell id="sn1TwzaURbwhgX4UDGPd-7" value="" style="endArrow=classic;html=1;exitX=1;exitY=0.5;exitDx=0;exitDy=0;" edge="1" parent="1">
                    <mxGeometry width="50" height="50" relative="1" as="geometry">
                        <mxPoint x="160" y="420.26" as="sourcePoint"/>
                        <mxPoint x="205" y="420.26" as="targetPoint"/>
                    </mxGeometry>
                </mxCell>
                <mxCell id="sn1TwzaURbwhgX4UDGPd-8" value="" style="rounded=0;whiteSpace=wrap;html=1;fontSize=12;fillColor=default;strokeColor=#FF0000;" vertex="1" parent="1">
                    <mxGeometry x="-120" y="600" width="80" height="40" as="geometry"/>
                </mxCell>
                <mxCell id="sn1TwzaURbwhgX4UDGPd-9" value="" style="rounded=0;whiteSpace=wrap;html=1;fontSize=12;fillColor=default;strokeColor=#FF0000;" vertex="1" parent="1">
                    <mxGeometry x="-120" y="560" width="80" height="40" as="geometry"/>
                </mxCell>
                <mxCell id="sn1TwzaURbwhgX4UDGPd-10" value="" style="rounded=0;whiteSpace=wrap;html=1;fontSize=12;fillColor=default;strokeColor=#FF0000;" vertex="1" parent="1">
                    <mxGeometry x="-120" y="520" width="80" height="40" as="geometry"/>
                </mxCell>
                <mxCell id="sn1TwzaURbwhgX4UDGPd-11" value="&lt;font color=&quot;#ff0000&quot;&gt;...&lt;/font&gt;" style="rounded=0;whiteSpace=wrap;html=1;fontSize=12;fillColor=default;strokeColor=#FF0000;" vertex="1" parent="1">
                    <mxGeometry x="-120" y="480" width="80" height="40" as="geometry"/>
                </mxCell>
                <mxCell id="sn1TwzaURbwhgX4UDGPd-12" value="" style="ellipse;whiteSpace=wrap;html=1;fontSize=12;strokeColor=#FFFF33;" vertex="1" parent="1">
                    <mxGeometry x="-115" y="680" width="70" height="40" as="geometry"/>
                </mxCell>
                <mxCell id="sn1TwzaURbwhgX4UDGPd-13" value="A" style="ellipse;whiteSpace=wrap;html=1;aspect=fixed;" vertex="1" parent="1">
                    <mxGeometry x="40" y="605" width="30" height="30" as="geometry"/>
                </mxCell>
                <mxCell id="sn1TwzaURbwhgX4UDGPd-14" value="D" style="ellipse;whiteSpace=wrap;html=1;aspect=fixed;" vertex="1" parent="1">
                    <mxGeometry x="105" y="685" width="30" height="30" as="geometry"/>
                </mxCell>
                <mxCell id="sn1TwzaURbwhgX4UDGPd-15" value="C" style="ellipse;whiteSpace=wrap;html=1;aspect=fixed;" vertex="1" parent="1">
                    <mxGeometry x="105" y="525" width="30" height="30" as="geometry"/>
                </mxCell>
                <mxCell id="sn1TwzaURbwhgX4UDGPd-16" value="B" style="ellipse;whiteSpace=wrap;html=1;aspect=fixed;" vertex="1" parent="1">
                    <mxGeometry x="105" y="605" width="30" height="30" as="geometry"/>
                </mxCell>
                <mxCell id="sn1TwzaURbwhgX4UDGPd-17" value="&lt;font color=&quot;#ff0000&quot;&gt;栈&lt;/font&gt;" style="text;html=1;align=center;verticalAlign=middle;resizable=0;points=[];autosize=1;strokeColor=none;fillColor=none;fontSize=12;" vertex="1" parent="1">
                    <mxGeometry x="-160" y="550" width="40" height="30" as="geometry"/>
                </mxCell>
                <mxCell id="sn1TwzaURbwhgX4UDGPd-18" value="" style="endArrow=classic;html=1;fontSize=12;exitX=1;exitY=0.5;exitDx=0;exitDy=0;strokeColor=#FF0000;" edge="1" parent="1" source="sn1TwzaURbwhgX4UDGPd-8">
                    <mxGeometry width="50" height="50" relative="1" as="geometry">
                        <mxPoint x="-30" y="570" as="sourcePoint"/>
                        <mxPoint x="40" y="620" as="targetPoint"/>
                    </mxGeometry>
                </mxCell>
                <mxCell id="sn1TwzaURbwhgX4UDGPd-19" value="" style="endArrow=classic;html=1;strokeColor=#00FF00;fontSize=12;exitX=1;exitY=0.5;exitDx=0;exitDy=0;entryX=0;entryY=0.5;entryDx=0;entryDy=0;" edge="1" parent="1" source="sn1TwzaURbwhgX4UDGPd-13" target="sn1TwzaURbwhgX4UDGPd-16">
                    <mxGeometry width="50" height="50" relative="1" as="geometry">
                        <mxPoint x="30" y="610" as="sourcePoint"/>
                        <mxPoint x="100" y="620" as="targetPoint"/>
                    </mxGeometry>
                </mxCell>
                <mxCell id="sn1TwzaURbwhgX4UDGPd-20" value="" style="endArrow=classic;html=1;strokeColor=#00FF00;fontSize=12;exitX=0.5;exitY=1;exitDx=0;exitDy=0;" edge="1" parent="1" source="sn1TwzaURbwhgX4UDGPd-16">
                    <mxGeometry width="50" height="50" relative="1" as="geometry">
                        <mxPoint x="-10" y="640" as="sourcePoint"/>
                        <mxPoint x="120" y="685" as="targetPoint"/>
                    </mxGeometry>
                </mxCell>
                <mxCell id="sn1TwzaURbwhgX4UDGPd-21" value="" style="endArrow=classic;html=1;strokeColor=#00FF00;fontSize=12;entryX=0.5;entryY=1;entryDx=0;entryDy=0;exitX=0.5;exitY=0;exitDx=0;exitDy=0;" edge="1" parent="1" source="sn1TwzaURbwhgX4UDGPd-16" target="sn1TwzaURbwhgX4UDGPd-15">
                    <mxGeometry width="50" height="50" relative="1" as="geometry">
                        <mxPoint x="50" y="630" as="sourcePoint"/>
                        <mxPoint x="100" y="580" as="targetPoint"/>
                    </mxGeometry>
                </mxCell>
                <mxCell id="sn1TwzaURbwhgX4UDGPd-22" value="" style="endArrow=classic;html=1;strokeColor=#FFFF33;fontSize=12;fontColor=#FF0000;exitX=1;exitY=0.5;exitDx=0;exitDy=0;entryX=0;entryY=0.5;entryDx=0;entryDy=0;" edge="1" parent="1" source="sn1TwzaURbwhgX4UDGPd-12" target="sn1TwzaURbwhgX4UDGPd-14">
                    <mxGeometry width="50" height="50" relative="1" as="geometry">
                        <mxPoint x="10" y="630" as="sourcePoint"/>
                        <mxPoint x="60" y="580" as="targetPoint"/>
                    </mxGeometry>
                </mxCell>
                <mxCell id="sn1TwzaURbwhgX4UDGPd-23" value="C" style="ellipse;whiteSpace=wrap;html=1;aspect=fixed;" vertex="1" parent="1">
                    <mxGeometry x="50" y="406.5" width="30" height="30" as="geometry"/>
                </mxCell>
                <mxCell id="sn1TwzaURbwhgX4UDGPd-24" value="" style="endArrow=classic;html=1;exitX=1;exitY=0.5;exitDx=0;exitDy=0;" edge="1" parent="1" source="sn1TwzaURbwhgX4UDGPd-23">
                    <mxGeometry width="50" height="50" relative="1" as="geometry">
                        <mxPoint x="370" y="706.5" as="sourcePoint"/>
                        <mxPoint x="130" y="421.5" as="targetPoint"/>
                    </mxGeometry>
                </mxCell>
                <mxCell id="sn1TwzaURbwhgX4UDGPd-25" value="D" style="ellipse;whiteSpace=wrap;html=1;aspect=fixed;" vertex="1" parent="1">
                    <mxGeometry x="-25" y="406.5" width="30" height="30" as="geometry"/>
                </mxCell>
                <mxCell id="sn1TwzaURbwhgX4UDGPd-26" value="" style="endArrow=classic;html=1;exitX=1;exitY=0.5;exitDx=0;exitDy=0;" edge="1" parent="1">
                    <mxGeometry width="50" height="50" relative="1" as="geometry">
                        <mxPoint x="5" y="421.26" as="sourcePoint"/>
                        <mxPoint x="50" y="421.26" as="targetPoint"/>
                    </mxGeometry>
                </mxCell>
                <mxCell id="sn1TwzaURbwhgX4UDGPd-27" value="E" style="ellipse;whiteSpace=wrap;html=1;aspect=fixed;" vertex="1" parent="1">
                    <mxGeometry x="-100" y="406.5" width="30" height="30" as="geometry"/>
                </mxCell>
                <mxCell id="sn1TwzaURbwhgX4UDGPd-28" value="" style="endArrow=classic;html=1;exitX=1;exitY=0.5;exitDx=0;exitDy=0;" edge="1" parent="1">
                    <mxGeometry width="50" height="50" relative="1" as="geometry">
                        <mxPoint x="-70" y="421.26" as="sourcePoint"/>
                        <mxPoint x="-25" y="421.26" as="targetPoint"/>
                    </mxGeometry>
                </mxCell>
                <mxCell id="sn1TwzaURbwhgX4UDGPd-29" value="&lt;span style=&quot;color: rgb(255, 255, 51);&quot;&gt;全局表&lt;/span&gt;" style="text;html=1;align=center;verticalAlign=middle;resizable=0;points=[];autosize=1;strokeColor=none;fillColor=none;fontSize=12;fontColor=#FF0000;" vertex="1" parent="1">
                    <mxGeometry x="-170" y="685" width="60" height="30" as="geometry"/>
                </mxCell>
                <mxCell id="sn1TwzaURbwhgX4UDGPd-30" value="E" style="ellipse;whiteSpace=wrap;html=1;aspect=fixed;" vertex="1" parent="1">
                    <mxGeometry x="160" y="605" width="30" height="30" as="geometry"/>
                </mxCell>
                <mxCell id="sn1TwzaURbwhgX4UDGPd-62" value="" style="rounded=0;whiteSpace=wrap;html=1;strokeColor=#FFFFFF;fontSize=12;fontColor=#FF0000;fillColor=none;" vertex="1" parent="1">
                    <mxGeometry x="-180" y="750" width="530" height="340" as="geometry"/>
                </mxCell>
                <mxCell id="sn1TwzaURbwhgX4UDGPd-63" value="allgc" style="text;html=1;align=center;verticalAlign=middle;resizable=0;points=[];autosize=1;strokeColor=none;fillColor=none;" vertex="1" parent="1">
                    <mxGeometry x="-165" y="765.5" width="50" height="30" as="geometry"/>
                </mxCell>
                <mxCell id="sn1TwzaURbwhgX4UDGPd-64" value="A" style="ellipse;whiteSpace=wrap;html=1;aspect=fixed;fillColor=#666666;strokeColor=#666666;" vertex="1" parent="1">
                    <mxGeometry x="205" y="765.5" width="30" height="30" as="geometry"/>
                </mxCell>
                <mxCell id="sn1TwzaURbwhgX4UDGPd-65" value="" style="endArrow=classic;html=1;exitX=1;exitY=0.5;exitDx=0;exitDy=0;" edge="1" parent="1" source="sn1TwzaURbwhgX4UDGPd-64">
                    <mxGeometry width="50" height="50" relative="1" as="geometry">
                        <mxPoint x="525" y="1065.5" as="sourcePoint"/>
                        <mxPoint x="285" y="780.5" as="targetPoint"/>
                    </mxGeometry>
                </mxCell>
                <mxCell id="sn1TwzaURbwhgX4UDGPd-66" value="" style="rounded=0;whiteSpace=wrap;html=1;fontSize=16;" vertex="1" parent="1">
                    <mxGeometry x="285" y="771.5" width="40" height="20" as="geometry"/>
                </mxCell>
                <mxCell id="sn1TwzaURbwhgX4UDGPd-67" value="NULL" style="text;html=1;align=center;verticalAlign=middle;resizable=0;points=[];autosize=1;strokeColor=none;fillColor=none;" vertex="1" parent="1">
                    <mxGeometry x="280" y="765.5" width="50" height="30" as="geometry"/>
                </mxCell>
                <mxCell id="sn1TwzaURbwhgX4UDGPd-68" value="B" style="ellipse;whiteSpace=wrap;html=1;aspect=fixed;" vertex="1" parent="1">
                    <mxGeometry x="130" y="765.5" width="30" height="30" as="geometry"/>
                </mxCell>
                <mxCell id="sn1TwzaURbwhgX4UDGPd-69" value="" style="endArrow=classic;html=1;exitX=1;exitY=0.5;exitDx=0;exitDy=0;" edge="1" parent="1">
                    <mxGeometry width="50" height="50" relative="1" as="geometry">
                        <mxPoint x="160" y="780.26" as="sourcePoint"/>
                        <mxPoint x="205" y="780.26" as="targetPoint"/>
                    </mxGeometry>
                </mxCell>
                <mxCell id="sn1TwzaURbwhgX4UDGPd-70" value="" style="rounded=0;whiteSpace=wrap;html=1;fontSize=12;fillColor=default;strokeColor=#FF0000;" vertex="1" parent="1">
                    <mxGeometry x="-120" y="960" width="80" height="40" as="geometry"/>
                </mxCell>
                <mxCell id="sn1TwzaURbwhgX4UDGPd-71" value="" style="rounded=0;whiteSpace=wrap;html=1;fontSize=12;fillColor=default;strokeColor=#FF0000;" vertex="1" parent="1">
                    <mxGeometry x="-120" y="920" width="80" height="40" as="geometry"/>
                </mxCell>
                <mxCell id="sn1TwzaURbwhgX4UDGPd-72" value="" style="rounded=0;whiteSpace=wrap;html=1;fontSize=12;fillColor=default;strokeColor=#FF0000;" vertex="1" parent="1">
                    <mxGeometry x="-120" y="880" width="80" height="40" as="geometry"/>
                </mxCell>
                <mxCell id="sn1TwzaURbwhgX4UDGPd-73" value="&lt;font color=&quot;#ff0000&quot;&gt;...&lt;/font&gt;" style="rounded=0;whiteSpace=wrap;html=1;fontSize=12;fillColor=default;strokeColor=#FF0000;" vertex="1" parent="1">
                    <mxGeometry x="-120" y="840" width="80" height="40" as="geometry"/>
                </mxCell>
                <mxCell id="sn1TwzaURbwhgX4UDGPd-74" value="" style="ellipse;whiteSpace=wrap;html=1;fontSize=12;strokeColor=#FFFF33;" vertex="1" parent="1">
                    <mxGeometry x="-115" y="1040" width="70" height="40" as="geometry"/>
                </mxCell>
                <mxCell id="sn1TwzaURbwhgX4UDGPd-75" value="A" style="ellipse;whiteSpace=wrap;html=1;aspect=fixed;fillColor=#666666;strokeColor=#666666;" vertex="1" parent="1">
                    <mxGeometry x="40" y="965" width="30" height="30" as="geometry"/>
                </mxCell>
                <mxCell id="sn1TwzaURbwhgX4UDGPd-76" value="D" style="ellipse;whiteSpace=wrap;html=1;aspect=fixed;fillColor=#666666;strokeColor=#666666;" vertex="1" parent="1">
                    <mxGeometry x="105" y="1045" width="30" height="30" as="geometry"/>
                </mxCell>
                <mxCell id="sn1TwzaURbwhgX4UDGPd-77" value="C" style="ellipse;whiteSpace=wrap;html=1;aspect=fixed;" vertex="1" parent="1">
                    <mxGeometry x="105" y="885" width="30" height="30" as="geometry"/>
                </mxCell>
                <mxCell id="sn1TwzaURbwhgX4UDGPd-78" value="B" style="ellipse;whiteSpace=wrap;html=1;aspect=fixed;" vertex="1" parent="1">
                    <mxGeometry x="105" y="965" width="30" height="30" as="geometry"/>
                </mxCell>
                <mxCell id="sn1TwzaURbwhgX4UDGPd-79" value="&lt;font color=&quot;#ff0000&quot;&gt;栈&lt;/font&gt;" style="text;html=1;align=center;verticalAlign=middle;resizable=0;points=[];autosize=1;strokeColor=none;fillColor=none;fontSize=12;" vertex="1" parent="1">
                    <mxGeometry x="-160" y="910" width="40" height="30" as="geometry"/>
                </mxCell>
                <mxCell id="sn1TwzaURbwhgX4UDGPd-80" value="" style="endArrow=classic;html=1;fontSize=12;exitX=1;exitY=0.5;exitDx=0;exitDy=0;strokeColor=#FF0000;" edge="1" parent="1" source="sn1TwzaURbwhgX4UDGPd-70">
                    <mxGeometry width="50" height="50" relative="1" as="geometry">
                        <mxPoint x="-30" y="930" as="sourcePoint"/>
                        <mxPoint x="40" y="980" as="targetPoint"/>
                    </mxGeometry>
                </mxCell>
                <mxCell id="sn1TwzaURbwhgX4UDGPd-81" value="" style="endArrow=classic;html=1;strokeColor=#00FF00;fontSize=12;exitX=1;exitY=0.5;exitDx=0;exitDy=0;entryX=0;entryY=0.5;entryDx=0;entryDy=0;" edge="1" parent="1" source="sn1TwzaURbwhgX4UDGPd-75" target="sn1TwzaURbwhgX4UDGPd-78">
                    <mxGeometry width="50" height="50" relative="1" as="geometry">
                        <mxPoint x="30" y="970" as="sourcePoint"/>
                        <mxPoint x="100" y="980" as="targetPoint"/>
                    </mxGeometry>
                </mxCell>
                <mxCell id="sn1TwzaURbwhgX4UDGPd-82" value="" style="endArrow=classic;html=1;strokeColor=#00FF00;fontSize=12;exitX=0.5;exitY=1;exitDx=0;exitDy=0;" edge="1" parent="1" source="sn1TwzaURbwhgX4UDGPd-78">
                    <mxGeometry width="50" height="50" relative="1" as="geometry">
                        <mxPoint x="-10" y="1000" as="sourcePoint"/>
                        <mxPoint x="120" y="1045" as="targetPoint"/>
                    </mxGeometry>
                </mxCell>
                <mxCell id="sn1TwzaURbwhgX4UDGPd-83" value="" style="endArrow=classic;html=1;strokeColor=#00FF00;fontSize=12;entryX=0.5;entryY=1;entryDx=0;entryDy=0;exitX=0.5;exitY=0;exitDx=0;exitDy=0;" edge="1" parent="1" source="sn1TwzaURbwhgX4UDGPd-78" target="sn1TwzaURbwhgX4UDGPd-77">
                    <mxGeometry width="50" height="50" relative="1" as="geometry">
                        <mxPoint x="50" y="990" as="sourcePoint"/>
                        <mxPoint x="100" y="940" as="targetPoint"/>
                    </mxGeometry>
                </mxCell>
                <mxCell id="sn1TwzaURbwhgX4UDGPd-84" value="" style="endArrow=classic;html=1;strokeColor=#FFFF33;fontSize=12;fontColor=#FF0000;exitX=1;exitY=0.5;exitDx=0;exitDy=0;entryX=0;entryY=0.5;entryDx=0;entryDy=0;" edge="1" parent="1" source="sn1TwzaURbwhgX4UDGPd-74" target="sn1TwzaURbwhgX4UDGPd-76">
                    <mxGeometry width="50" height="50" relative="1" as="geometry">
                        <mxPoint x="10" y="990" as="sourcePoint"/>
                        <mxPoint x="60" y="940" as="targetPoint"/>
                    </mxGeometry>
                </mxCell>
                <mxCell id="sn1TwzaURbwhgX4UDGPd-85" value="C" style="ellipse;whiteSpace=wrap;html=1;aspect=fixed;" vertex="1" parent="1">
                    <mxGeometry x="50" y="766.5" width="30" height="30" as="geometry"/>
                </mxCell>
                <mxCell id="sn1TwzaURbwhgX4UDGPd-86" value="" style="endArrow=classic;html=1;exitX=1;exitY=0.5;exitDx=0;exitDy=0;" edge="1" parent="1" source="sn1TwzaURbwhgX4UDGPd-85">
                    <mxGeometry width="50" height="50" relative="1" as="geometry">
                        <mxPoint x="370" y="1066.5" as="sourcePoint"/>
                        <mxPoint x="130" y="781.5" as="targetPoint"/>
                    </mxGeometry>
                </mxCell>
                <mxCell id="sn1TwzaURbwhgX4UDGPd-87" value="D" style="ellipse;whiteSpace=wrap;html=1;aspect=fixed;fillColor=#666666;strokeColor=#666666;" vertex="1" parent="1">
                    <mxGeometry x="-25" y="766.5" width="30" height="30" as="geometry"/>
                </mxCell>
                <mxCell id="sn1TwzaURbwhgX4UDGPd-88" value="" style="endArrow=classic;html=1;exitX=1;exitY=0.5;exitDx=0;exitDy=0;" edge="1" parent="1">
                    <mxGeometry width="50" height="50" relative="1" as="geometry">
                        <mxPoint x="5" y="781.26" as="sourcePoint"/>
                        <mxPoint x="50" y="781.26" as="targetPoint"/>
                    </mxGeometry>
                </mxCell>
                <mxCell id="sn1TwzaURbwhgX4UDGPd-89" value="E" style="ellipse;whiteSpace=wrap;html=1;aspect=fixed;" vertex="1" parent="1">
                    <mxGeometry x="-100" y="766.5" width="30" height="30" as="geometry"/>
                </mxCell>
                <mxCell id="sn1TwzaURbwhgX4UDGPd-90" value="" style="endArrow=classic;html=1;exitX=1;exitY=0.5;exitDx=0;exitDy=0;" edge="1" parent="1">
                    <mxGeometry width="50" height="50" relative="1" as="geometry">
                        <mxPoint x="-70" y="781.26" as="sourcePoint"/>
                        <mxPoint x="-25" y="781.26" as="targetPoint"/>
                    </mxGeometry>
                </mxCell>
                <mxCell id="sn1TwzaURbwhgX4UDGPd-91" value="&lt;span style=&quot;color: rgb(255, 255, 51);&quot;&gt;全局表&lt;/span&gt;" style="text;html=1;align=center;verticalAlign=middle;resizable=0;points=[];autosize=1;strokeColor=none;fillColor=none;fontSize=12;fontColor=#FF0000;" vertex="1" parent="1">
                    <mxGeometry x="-170" y="1045" width="60" height="30" as="geometry"/>
                </mxCell>
                <mxCell id="sn1TwzaURbwhgX4UDGPd-92" value="E" style="ellipse;whiteSpace=wrap;html=1;aspect=fixed;" vertex="1" parent="1">
                    <mxGeometry x="160" y="965" width="30" height="30" as="geometry"/>
                </mxCell>
                <mxCell id="sn1TwzaURbwhgX4UDGPd-93" value="" style="rounded=0;whiteSpace=wrap;html=1;strokeColor=#FFFFFF;fontSize=12;fontColor=#FF0000;fillColor=none;" vertex="1" parent="1">
                    <mxGeometry x="-180" y="1110" width="530" height="340" as="geometry"/>
                </mxCell>
                <mxCell id="sn1TwzaURbwhgX4UDGPd-94" value="allgc" style="text;html=1;align=center;verticalAlign=middle;resizable=0;points=[];autosize=1;strokeColor=none;fillColor=none;" vertex="1" parent="1">
                    <mxGeometry x="-165" y="1125.5" width="50" height="30" as="geometry"/>
                </mxCell>
                <mxCell id="sn1TwzaURbwhgX4UDGPd-95" value="A" style="ellipse;whiteSpace=wrap;html=1;aspect=fixed;fillColor=#000000;strokeColor=#000000;" vertex="1" parent="1">
                    <mxGeometry x="205" y="1125.5" width="30" height="30" as="geometry"/>
                </mxCell>
                <mxCell id="sn1TwzaURbwhgX4UDGPd-96" value="" style="endArrow=classic;html=1;exitX=1;exitY=0.5;exitDx=0;exitDy=0;" edge="1" parent="1" source="sn1TwzaURbwhgX4UDGPd-95">
                    <mxGeometry width="50" height="50" relative="1" as="geometry">
                        <mxPoint x="525" y="1425.5" as="sourcePoint"/>
                        <mxPoint x="285" y="1140.5" as="targetPoint"/>
                    </mxGeometry>
                </mxCell>
                <mxCell id="sn1TwzaURbwhgX4UDGPd-97" value="" style="rounded=0;whiteSpace=wrap;html=1;fontSize=16;" vertex="1" parent="1">
                    <mxGeometry x="285" y="1131.5" width="40" height="20" as="geometry"/>
                </mxCell>
                <mxCell id="sn1TwzaURbwhgX4UDGPd-98" value="NULL" style="text;html=1;align=center;verticalAlign=middle;resizable=0;points=[];autosize=1;strokeColor=none;fillColor=none;" vertex="1" parent="1">
                    <mxGeometry x="280" y="1125.5" width="50" height="30" as="geometry"/>
                </mxCell>
                <mxCell id="sn1TwzaURbwhgX4UDGPd-99" value="B" style="ellipse;whiteSpace=wrap;html=1;aspect=fixed;fillColor=#666666;strokeColor=#666666;" vertex="1" parent="1">
                    <mxGeometry x="130" y="1125.5" width="30" height="30" as="geometry"/>
                </mxCell>
                <mxCell id="sn1TwzaURbwhgX4UDGPd-100" value="" style="endArrow=classic;html=1;exitX=1;exitY=0.5;exitDx=0;exitDy=0;" edge="1" parent="1">
                    <mxGeometry width="50" height="50" relative="1" as="geometry">
                        <mxPoint x="160" y="1140.26" as="sourcePoint"/>
                        <mxPoint x="205" y="1140.26" as="targetPoint"/>
                    </mxGeometry>
                </mxCell>
                <mxCell id="sn1TwzaURbwhgX4UDGPd-101" value="" style="rounded=0;whiteSpace=wrap;html=1;fontSize=12;fillColor=default;strokeColor=#FF0000;" vertex="1" parent="1">
                    <mxGeometry x="-120" y="1320" width="80" height="40" as="geometry"/>
                </mxCell>
                <mxCell id="sn1TwzaURbwhgX4UDGPd-102" value="" style="rounded=0;whiteSpace=wrap;html=1;fontSize=12;fillColor=default;strokeColor=#FF0000;" vertex="1" parent="1">
                    <mxGeometry x="-120" y="1280" width="80" height="40" as="geometry"/>
                </mxCell>
                <mxCell id="sn1TwzaURbwhgX4UDGPd-103" value="" style="rounded=0;whiteSpace=wrap;html=1;fontSize=12;fillColor=default;strokeColor=#FF0000;" vertex="1" parent="1">
                    <mxGeometry x="-120" y="1240" width="80" height="40" as="geometry"/>
                </mxCell>
                <mxCell id="sn1TwzaURbwhgX4UDGPd-104" value="&lt;font color=&quot;#ff0000&quot;&gt;...&lt;/font&gt;" style="rounded=0;whiteSpace=wrap;html=1;fontSize=12;fillColor=default;strokeColor=#FF0000;" vertex="1" parent="1">
                    <mxGeometry x="-120" y="1200" width="80" height="40" as="geometry"/>
                </mxCell>
                <mxCell id="sn1TwzaURbwhgX4UDGPd-105" value="" style="ellipse;whiteSpace=wrap;html=1;fontSize=12;strokeColor=#FFFF33;" vertex="1" parent="1">
                    <mxGeometry x="-115" y="1400" width="70" height="40" as="geometry"/>
                </mxCell>
                <mxCell id="sn1TwzaURbwhgX4UDGPd-106" value="A" style="ellipse;whiteSpace=wrap;html=1;aspect=fixed;fillColor=#000000;strokeColor=#000000;" vertex="1" parent="1">
                    <mxGeometry x="40" y="1325" width="30" height="30" as="geometry"/>
                </mxCell>
                <mxCell id="sn1TwzaURbwhgX4UDGPd-107" value="D" style="ellipse;whiteSpace=wrap;html=1;aspect=fixed;fillColor=#000000;" vertex="1" parent="1">
                    <mxGeometry x="105" y="1405" width="30" height="30" as="geometry"/>
                </mxCell>
                <mxCell id="sn1TwzaURbwhgX4UDGPd-108" value="C" style="ellipse;whiteSpace=wrap;html=1;aspect=fixed;" vertex="1" parent="1">
                    <mxGeometry x="105" y="1245" width="30" height="30" as="geometry"/>
                </mxCell>
                <mxCell id="sn1TwzaURbwhgX4UDGPd-109" value="B" style="ellipse;whiteSpace=wrap;html=1;aspect=fixed;fillColor=#666666;strokeColor=#666666;" vertex="1" parent="1">
                    <mxGeometry x="105" y="1325" width="30" height="30" as="geometry"/>
                </mxCell>
                <mxCell id="sn1TwzaURbwhgX4UDGPd-110" value="&lt;font color=&quot;#ff0000&quot;&gt;栈&lt;/font&gt;" style="text;html=1;align=center;verticalAlign=middle;resizable=0;points=[];autosize=1;strokeColor=none;fillColor=none;fontSize=12;" vertex="1" parent="1">
                    <mxGeometry x="-160" y="1270" width="40" height="30" as="geometry"/>
                </mxCell>
                <mxCell id="sn1TwzaURbwhgX4UDGPd-111" value="" style="endArrow=classic;html=1;fontSize=12;exitX=1;exitY=0.5;exitDx=0;exitDy=0;strokeColor=#FF0000;" edge="1" parent="1" source="sn1TwzaURbwhgX4UDGPd-101">
                    <mxGeometry width="50" height="50" relative="1" as="geometry">
                        <mxPoint x="-30" y="1290" as="sourcePoint"/>
                        <mxPoint x="40" y="1340" as="targetPoint"/>
                    </mxGeometry>
                </mxCell>
                <mxCell id="sn1TwzaURbwhgX4UDGPd-112" value="" style="endArrow=classic;html=1;strokeColor=#00FF00;fontSize=12;exitX=1;exitY=0.5;exitDx=0;exitDy=0;entryX=0;entryY=0.5;entryDx=0;entryDy=0;" edge="1" parent="1" source="sn1TwzaURbwhgX4UDGPd-106" target="sn1TwzaURbwhgX4UDGPd-109">
                    <mxGeometry width="50" height="50" relative="1" as="geometry">
                        <mxPoint x="30" y="1330" as="sourcePoint"/>
                        <mxPoint x="100" y="1340" as="targetPoint"/>
                    </mxGeometry>
                </mxCell>
                <mxCell id="sn1TwzaURbwhgX4UDGPd-113" value="" style="endArrow=classic;html=1;strokeColor=#00FF00;fontSize=12;exitX=0.5;exitY=1;exitDx=0;exitDy=0;" edge="1" parent="1" source="sn1TwzaURbwhgX4UDGPd-109">
                    <mxGeometry width="50" height="50" relative="1" as="geometry">
                        <mxPoint x="-10" y="1360" as="sourcePoint"/>
                        <mxPoint x="120" y="1405" as="targetPoint"/>
                    </mxGeometry>
                </mxCell>
                <mxCell id="sn1TwzaURbwhgX4UDGPd-114" value="" style="endArrow=classic;html=1;strokeColor=#00FF00;fontSize=12;entryX=0.5;entryY=1;entryDx=0;entryDy=0;exitX=0.5;exitY=0;exitDx=0;exitDy=0;" edge="1" parent="1" source="sn1TwzaURbwhgX4UDGPd-109" target="sn1TwzaURbwhgX4UDGPd-108">
                    <mxGeometry width="50" height="50" relative="1" as="geometry">
                        <mxPoint x="50" y="1350" as="sourcePoint"/>
                        <mxPoint x="100" y="1300" as="targetPoint"/>
                    </mxGeometry>
                </mxCell>
                <mxCell id="sn1TwzaURbwhgX4UDGPd-115" value="" style="endArrow=classic;html=1;strokeColor=#FFFF33;fontSize=12;fontColor=#FF0000;exitX=1;exitY=0.5;exitDx=0;exitDy=0;entryX=0;entryY=0.5;entryDx=0;entryDy=0;" edge="1" parent="1" source="sn1TwzaURbwhgX4UDGPd-105" target="sn1TwzaURbwhgX4UDGPd-107">
                    <mxGeometry width="50" height="50" relative="1" as="geometry">
                        <mxPoint x="10" y="1350" as="sourcePoint"/>
                        <mxPoint x="60" y="1300" as="targetPoint"/>
                    </mxGeometry>
                </mxCell>
                <mxCell id="sn1TwzaURbwhgX4UDGPd-116" value="C" style="ellipse;whiteSpace=wrap;html=1;aspect=fixed;" vertex="1" parent="1">
                    <mxGeometry x="50" y="1126.5" width="30" height="30" as="geometry"/>
                </mxCell>
                <mxCell id="sn1TwzaURbwhgX4UDGPd-117" value="" style="endArrow=classic;html=1;exitX=1;exitY=0.5;exitDx=0;exitDy=0;" edge="1" parent="1" source="sn1TwzaURbwhgX4UDGPd-116">
                    <mxGeometry width="50" height="50" relative="1" as="geometry">
                        <mxPoint x="370" y="1426.5" as="sourcePoint"/>
                        <mxPoint x="130" y="1141.5" as="targetPoint"/>
                    </mxGeometry>
                </mxCell>
                <mxCell id="sn1TwzaURbwhgX4UDGPd-118" value="D" style="ellipse;whiteSpace=wrap;html=1;aspect=fixed;fillColor=#000000;strokeColor=#000000;" vertex="1" parent="1">
                    <mxGeometry x="-25" y="1126.5" width="30" height="30" as="geometry"/>
                </mxCell>
                <mxCell id="sn1TwzaURbwhgX4UDGPd-119" value="" style="endArrow=classic;html=1;exitX=1;exitY=0.5;exitDx=0;exitDy=0;" edge="1" parent="1">
                    <mxGeometry width="50" height="50" relative="1" as="geometry">
                        <mxPoint x="5" y="1141.26" as="sourcePoint"/>
                        <mxPoint x="50" y="1141.26" as="targetPoint"/>
                    </mxGeometry>
                </mxCell>
                <mxCell id="sn1TwzaURbwhgX4UDGPd-120" value="E" style="ellipse;whiteSpace=wrap;html=1;aspect=fixed;" vertex="1" parent="1">
                    <mxGeometry x="-100" y="1126.5" width="30" height="30" as="geometry"/>
                </mxCell>
                <mxCell id="sn1TwzaURbwhgX4UDGPd-121" value="" style="endArrow=classic;html=1;exitX=1;exitY=0.5;exitDx=0;exitDy=0;" edge="1" parent="1">
                    <mxGeometry width="50" height="50" relative="1" as="geometry">
                        <mxPoint x="-70" y="1141.26" as="sourcePoint"/>
                        <mxPoint x="-25" y="1141.26" as="targetPoint"/>
                    </mxGeometry>
                </mxCell>
                <mxCell id="sn1TwzaURbwhgX4UDGPd-122" value="&lt;span style=&quot;color: rgb(255, 255, 51);&quot;&gt;全局表&lt;/span&gt;" style="text;html=1;align=center;verticalAlign=middle;resizable=0;points=[];autosize=1;strokeColor=none;fillColor=none;fontSize=12;fontColor=#FF0000;" vertex="1" parent="1">
                    <mxGeometry x="-170" y="1405" width="60" height="30" as="geometry"/>
                </mxCell>
                <mxCell id="sn1TwzaURbwhgX4UDGPd-123" value="E" style="ellipse;whiteSpace=wrap;html=1;aspect=fixed;" vertex="1" parent="1">
                    <mxGeometry x="160" y="1325" width="30" height="30" as="geometry"/>
                </mxCell>
                <mxCell id="sn1TwzaURbwhgX4UDGPd-124" value="" style="rounded=0;whiteSpace=wrap;html=1;strokeColor=#FFFFFF;fontSize=12;fontColor=#FF0000;fillColor=none;" vertex="1" parent="1">
                    <mxGeometry x="-180" y="1470" width="530" height="340" as="geometry"/>
                </mxCell>
                <mxCell id="sn1TwzaURbwhgX4UDGPd-125" value="allgc" style="text;html=1;align=center;verticalAlign=middle;resizable=0;points=[];autosize=1;strokeColor=none;fillColor=none;" vertex="1" parent="1">
                    <mxGeometry x="-165" y="1485.5" width="50" height="30" as="geometry"/>
                </mxCell>
                <mxCell id="sn1TwzaURbwhgX4UDGPd-126" value="A" style="ellipse;whiteSpace=wrap;html=1;aspect=fixed;fillColor=#000000;" vertex="1" parent="1">
                    <mxGeometry x="205" y="1485.5" width="30" height="30" as="geometry"/>
                </mxCell>
                <mxCell id="sn1TwzaURbwhgX4UDGPd-127" value="" style="endArrow=classic;html=1;exitX=1;exitY=0.5;exitDx=0;exitDy=0;" edge="1" parent="1" source="sn1TwzaURbwhgX4UDGPd-126">
                    <mxGeometry width="50" height="50" relative="1" as="geometry">
                        <mxPoint x="525" y="1785.5" as="sourcePoint"/>
                        <mxPoint x="285" y="1500.5" as="targetPoint"/>
                    </mxGeometry>
                </mxCell>
                <mxCell id="sn1TwzaURbwhgX4UDGPd-128" value="" style="rounded=0;whiteSpace=wrap;html=1;fontSize=16;" vertex="1" parent="1">
                    <mxGeometry x="285" y="1491.5" width="40" height="20" as="geometry"/>
                </mxCell>
                <mxCell id="sn1TwzaURbwhgX4UDGPd-129" value="NULL" style="text;html=1;align=center;verticalAlign=middle;resizable=0;points=[];autosize=1;strokeColor=none;fillColor=none;" vertex="1" parent="1">
                    <mxGeometry x="280" y="1485.5" width="50" height="30" as="geometry"/>
                </mxCell>
                <mxCell id="sn1TwzaURbwhgX4UDGPd-130" value="B" style="ellipse;whiteSpace=wrap;html=1;aspect=fixed;fillColor=#000000;" vertex="1" parent="1">
                    <mxGeometry x="130" y="1485.5" width="30" height="30" as="geometry"/>
                </mxCell>
                <mxCell id="sn1TwzaURbwhgX4UDGPd-131" value="" style="endArrow=classic;html=1;exitX=1;exitY=0.5;exitDx=0;exitDy=0;" edge="1" parent="1">
                    <mxGeometry width="50" height="50" relative="1" as="geometry">
                        <mxPoint x="160" y="1500.26" as="sourcePoint"/>
                        <mxPoint x="205" y="1500.26" as="targetPoint"/>
                    </mxGeometry>
                </mxCell>
                <mxCell id="sn1TwzaURbwhgX4UDGPd-132" value="" style="rounded=0;whiteSpace=wrap;html=1;fontSize=12;fillColor=default;strokeColor=#FF0000;" vertex="1" parent="1">
                    <mxGeometry x="-120" y="1680" width="80" height="40" as="geometry"/>
                </mxCell>
                <mxCell id="sn1TwzaURbwhgX4UDGPd-133" value="" style="rounded=0;whiteSpace=wrap;html=1;fontSize=12;fillColor=default;strokeColor=#FF0000;" vertex="1" parent="1">
                    <mxGeometry x="-120" y="1640" width="80" height="40" as="geometry"/>
                </mxCell>
                <mxCell id="sn1TwzaURbwhgX4UDGPd-134" value="" style="rounded=0;whiteSpace=wrap;html=1;fontSize=12;fillColor=default;strokeColor=#FF0000;" vertex="1" parent="1">
                    <mxGeometry x="-120" y="1600" width="80" height="40" as="geometry"/>
                </mxCell>
                <mxCell id="sn1TwzaURbwhgX4UDGPd-135" value="&lt;font color=&quot;#ff0000&quot;&gt;...&lt;/font&gt;" style="rounded=0;whiteSpace=wrap;html=1;fontSize=12;fillColor=default;strokeColor=#FF0000;" vertex="1" parent="1">
                    <mxGeometry x="-120" y="1560" width="80" height="40" as="geometry"/>
                </mxCell>
                <mxCell id="sn1TwzaURbwhgX4UDGPd-136" value="" style="ellipse;whiteSpace=wrap;html=1;fontSize=12;strokeColor=#FFFF33;" vertex="1" parent="1">
                    <mxGeometry x="-115" y="1760" width="70" height="40" as="geometry"/>
                </mxCell>
                <mxCell id="sn1TwzaURbwhgX4UDGPd-137" value="A" style="ellipse;whiteSpace=wrap;html=1;aspect=fixed;fillColor=#000000;strokeColor=#000000;" vertex="1" parent="1">
                    <mxGeometry x="40" y="1685" width="30" height="30" as="geometry"/>
                </mxCell>
                <mxCell id="sn1TwzaURbwhgX4UDGPd-138" value="D" style="ellipse;whiteSpace=wrap;html=1;aspect=fixed;fillColor=#000000;" vertex="1" parent="1">
                    <mxGeometry x="105" y="1765" width="30" height="30" as="geometry"/>
                </mxCell>
                <mxCell id="sn1TwzaURbwhgX4UDGPd-139" value="C" style="ellipse;whiteSpace=wrap;html=1;aspect=fixed;fillColor=#666666;strokeColor=#666666;" vertex="1" parent="1">
                    <mxGeometry x="105" y="1605" width="30" height="30" as="geometry"/>
                </mxCell>
                <mxCell id="sn1TwzaURbwhgX4UDGPd-140" value="B" style="ellipse;whiteSpace=wrap;html=1;aspect=fixed;fillColor=#000000;" vertex="1" parent="1">
                    <mxGeometry x="105" y="1685" width="30" height="30" as="geometry"/>
                </mxCell>
                <mxCell id="sn1TwzaURbwhgX4UDGPd-141" value="&lt;font color=&quot;#ff0000&quot;&gt;栈&lt;/font&gt;" style="text;html=1;align=center;verticalAlign=middle;resizable=0;points=[];autosize=1;strokeColor=none;fillColor=none;fontSize=12;" vertex="1" parent="1">
                    <mxGeometry x="-160" y="1630" width="40" height="30" as="geometry"/>
                </mxCell>
                <mxCell id="sn1TwzaURbwhgX4UDGPd-142" value="" style="endArrow=classic;html=1;fontSize=12;exitX=1;exitY=0.5;exitDx=0;exitDy=0;strokeColor=#FF0000;" edge="1" parent="1" source="sn1TwzaURbwhgX4UDGPd-132">
                    <mxGeometry width="50" height="50" relative="1" as="geometry">
                        <mxPoint x="-30" y="1650" as="sourcePoint"/>
                        <mxPoint x="40" y="1700" as="targetPoint"/>
                    </mxGeometry>
                </mxCell>
                <mxCell id="sn1TwzaURbwhgX4UDGPd-143" value="" style="endArrow=classic;html=1;strokeColor=#00FF00;fontSize=12;exitX=1;exitY=0.5;exitDx=0;exitDy=0;entryX=0;entryY=0.5;entryDx=0;entryDy=0;" edge="1" parent="1" source="sn1TwzaURbwhgX4UDGPd-137" target="sn1TwzaURbwhgX4UDGPd-140">
                    <mxGeometry width="50" height="50" relative="1" as="geometry">
                        <mxPoint x="30" y="1690" as="sourcePoint"/>
                        <mxPoint x="100" y="1700" as="targetPoint"/>
                    </mxGeometry>
                </mxCell>
                <mxCell id="sn1TwzaURbwhgX4UDGPd-144" value="" style="endArrow=classic;html=1;strokeColor=#00FF00;fontSize=12;exitX=0.5;exitY=1;exitDx=0;exitDy=0;" edge="1" parent="1" source="sn1TwzaURbwhgX4UDGPd-140">
                    <mxGeometry width="50" height="50" relative="1" as="geometry">
                        <mxPoint x="-10" y="1720" as="sourcePoint"/>
                        <mxPoint x="120" y="1765" as="targetPoint"/>
                    </mxGeometry>
                </mxCell>
                <mxCell id="sn1TwzaURbwhgX4UDGPd-145" value="" style="endArrow=classic;html=1;strokeColor=#00FF00;fontSize=12;entryX=0.5;entryY=1;entryDx=0;entryDy=0;exitX=0.5;exitY=0;exitDx=0;exitDy=0;" edge="1" parent="1" source="sn1TwzaURbwhgX4UDGPd-140" target="sn1TwzaURbwhgX4UDGPd-139">
                    <mxGeometry width="50" height="50" relative="1" as="geometry">
                        <mxPoint x="50" y="1710" as="sourcePoint"/>
                        <mxPoint x="100" y="1660" as="targetPoint"/>
                    </mxGeometry>
                </mxCell>
                <mxCell id="sn1TwzaURbwhgX4UDGPd-146" value="" style="endArrow=classic;html=1;strokeColor=#FFFF33;fontSize=12;fontColor=#FF0000;exitX=1;exitY=0.5;exitDx=0;exitDy=0;entryX=0;entryY=0.5;entryDx=0;entryDy=0;" edge="1" parent="1" source="sn1TwzaURbwhgX4UDGPd-136" target="sn1TwzaURbwhgX4UDGPd-138">
                    <mxGeometry width="50" height="50" relative="1" as="geometry">
                        <mxPoint x="10" y="1710" as="sourcePoint"/>
                        <mxPoint x="60" y="1660" as="targetPoint"/>
                    </mxGeometry>
                </mxCell>
                <mxCell id="sn1TwzaURbwhgX4UDGPd-147" value="C" style="ellipse;whiteSpace=wrap;html=1;aspect=fixed;fillColor=#666666;strokeColor=#666666;" vertex="1" parent="1">
                    <mxGeometry x="50" y="1486.5" width="30" height="30" as="geometry"/>
                </mxCell>
                <mxCell id="sn1TwzaURbwhgX4UDGPd-148" value="" style="endArrow=classic;html=1;exitX=1;exitY=0.5;exitDx=0;exitDy=0;" edge="1" parent="1" source="sn1TwzaURbwhgX4UDGPd-147">
                    <mxGeometry width="50" height="50" relative="1" as="geometry">
                        <mxPoint x="370" y="1786.5" as="sourcePoint"/>
                        <mxPoint x="130" y="1501.4999999999998" as="targetPoint"/>
                    </mxGeometry>
                </mxCell>
                <mxCell id="sn1TwzaURbwhgX4UDGPd-149" value="D" style="ellipse;whiteSpace=wrap;html=1;aspect=fixed;fillColor=#000000;strokeColor=#000000;" vertex="1" parent="1">
                    <mxGeometry x="-25" y="1486.5" width="30" height="30" as="geometry"/>
                </mxCell>
                <mxCell id="sn1TwzaURbwhgX4UDGPd-150" value="" style="endArrow=classic;html=1;exitX=1;exitY=0.5;exitDx=0;exitDy=0;" edge="1" parent="1">
                    <mxGeometry width="50" height="50" relative="1" as="geometry">
                        <mxPoint x="5" y="1501.2599999999998" as="sourcePoint"/>
                        <mxPoint x="50" y="1501.2599999999998" as="targetPoint"/>
                    </mxGeometry>
                </mxCell>
                <mxCell id="sn1TwzaURbwhgX4UDGPd-151" value="E" style="ellipse;whiteSpace=wrap;html=1;aspect=fixed;" vertex="1" parent="1">
                    <mxGeometry x="-100" y="1486.5" width="30" height="30" as="geometry"/>
                </mxCell>
                <mxCell id="sn1TwzaURbwhgX4UDGPd-152" value="" style="endArrow=classic;html=1;exitX=1;exitY=0.5;exitDx=0;exitDy=0;" edge="1" parent="1">
                    <mxGeometry width="50" height="50" relative="1" as="geometry">
                        <mxPoint x="-70" y="1501.2599999999998" as="sourcePoint"/>
                        <mxPoint x="-25" y="1501.2599999999998" as="targetPoint"/>
                    </mxGeometry>
                </mxCell>
                <mxCell id="sn1TwzaURbwhgX4UDGPd-153" value="&lt;span style=&quot;color: rgb(255, 255, 51);&quot;&gt;全局表&lt;/span&gt;" style="text;html=1;align=center;verticalAlign=middle;resizable=0;points=[];autosize=1;strokeColor=none;fillColor=none;fontSize=12;fontColor=#FF0000;" vertex="1" parent="1">
                    <mxGeometry x="-170" y="1765" width="60" height="30" as="geometry"/>
                </mxCell>
                <mxCell id="sn1TwzaURbwhgX4UDGPd-154" value="E" style="ellipse;whiteSpace=wrap;html=1;aspect=fixed;" vertex="1" parent="1">
                    <mxGeometry x="160" y="1685" width="30" height="30" as="geometry"/>
                </mxCell>
                <mxCell id="sn1TwzaURbwhgX4UDGPd-156" value="allgc" style="text;html=1;align=center;verticalAlign=middle;resizable=0;points=[];autosize=1;strokeColor=none;fillColor=none;" vertex="1" parent="1">
                    <mxGeometry x="-165" y="1845.5" width="50" height="30" as="geometry"/>
                </mxCell>
                <mxCell id="sn1TwzaURbwhgX4UDGPd-157" value="A" style="ellipse;whiteSpace=wrap;html=1;aspect=fixed;fillColor=#000000;" vertex="1" parent="1">
                    <mxGeometry x="130" y="1845.5" width="30" height="30" as="geometry"/>
                </mxCell>
                <mxCell id="sn1TwzaURbwhgX4UDGPd-158" value="" style="endArrow=classic;html=1;exitX=1;exitY=0.5;exitDx=0;exitDy=0;" edge="1" parent="1" source="sn1TwzaURbwhgX4UDGPd-157">
                    <mxGeometry width="50" height="50" relative="1" as="geometry">
                        <mxPoint x="450" y="2145.5" as="sourcePoint"/>
                        <mxPoint x="210" y="1860.5" as="targetPoint"/>
                    </mxGeometry>
                </mxCell>
                <mxCell id="sn1TwzaURbwhgX4UDGPd-159" value="" style="rounded=0;whiteSpace=wrap;html=1;fontSize=16;" vertex="1" parent="1">
                    <mxGeometry x="210" y="1851.5" width="40" height="20" as="geometry"/>
                </mxCell>
                <mxCell id="sn1TwzaURbwhgX4UDGPd-160" value="NULL" style="text;html=1;align=center;verticalAlign=middle;resizable=0;points=[];autosize=1;strokeColor=none;fillColor=none;" vertex="1" parent="1">
                    <mxGeometry x="205" y="1845.5" width="50" height="30" as="geometry"/>
                </mxCell>
                <mxCell id="sn1TwzaURbwhgX4UDGPd-161" value="B" style="ellipse;whiteSpace=wrap;html=1;aspect=fixed;fillColor=#000000;" vertex="1" parent="1">
                    <mxGeometry x="55" y="1845.5" width="30" height="30" as="geometry"/>
                </mxCell>
                <mxCell id="sn1TwzaURbwhgX4UDGPd-162" value="" style="endArrow=classic;html=1;exitX=1;exitY=0.5;exitDx=0;exitDy=0;" edge="1" parent="1">
                    <mxGeometry width="50" height="50" relative="1" as="geometry">
                        <mxPoint x="85" y="1860.2600000000002" as="sourcePoint"/>
                        <mxPoint x="130" y="1860.2600000000002" as="targetPoint"/>
                    </mxGeometry>
                </mxCell>
                <mxCell id="sn1TwzaURbwhgX4UDGPd-163" value="" style="rounded=0;whiteSpace=wrap;html=1;fontSize=12;fillColor=default;strokeColor=#FF0000;" vertex="1" parent="1">
                    <mxGeometry x="-120" y="2040" width="80" height="40" as="geometry"/>
                </mxCell>
                <mxCell id="sn1TwzaURbwhgX4UDGPd-164" value="" style="rounded=0;whiteSpace=wrap;html=1;fontSize=12;fillColor=default;strokeColor=#FF0000;" vertex="1" parent="1">
                    <mxGeometry x="-120" y="2000" width="80" height="40" as="geometry"/>
                </mxCell>
                <mxCell id="sn1TwzaURbwhgX4UDGPd-165" value="" style="rounded=0;whiteSpace=wrap;html=1;fontSize=12;fillColor=default;strokeColor=#FF0000;" vertex="1" parent="1">
                    <mxGeometry x="-120" y="1960" width="80" height="40" as="geometry"/>
                </mxCell>
                <mxCell id="sn1TwzaURbwhgX4UDGPd-166" value="&lt;font color=&quot;#ff0000&quot;&gt;...&lt;/font&gt;" style="rounded=0;whiteSpace=wrap;html=1;fontSize=12;fillColor=default;strokeColor=#FF0000;" vertex="1" parent="1">
                    <mxGeometry x="-120" y="1920" width="80" height="40" as="geometry"/>
                </mxCell>
                <mxCell id="sn1TwzaURbwhgX4UDGPd-167" value="" style="ellipse;whiteSpace=wrap;html=1;fontSize=12;strokeColor=#FFFF33;" vertex="1" parent="1">
                    <mxGeometry x="-115" y="2120" width="70" height="40" as="geometry"/>
                </mxCell>
                <mxCell id="sn1TwzaURbwhgX4UDGPd-168" value="A" style="ellipse;whiteSpace=wrap;html=1;aspect=fixed;fillColor=#000000;" vertex="1" parent="1">
                    <mxGeometry x="40" y="2045" width="30" height="30" as="geometry"/>
                </mxCell>
                <mxCell id="sn1TwzaURbwhgX4UDGPd-169" value="D" style="ellipse;whiteSpace=wrap;html=1;aspect=fixed;fillColor=#000000;" vertex="1" parent="1">
                    <mxGeometry x="105" y="2125" width="30" height="30" as="geometry"/>
                </mxCell>
                <mxCell id="sn1TwzaURbwhgX4UDGPd-170" value="C" style="ellipse;whiteSpace=wrap;html=1;aspect=fixed;fillColor=#666666;" vertex="1" parent="1">
                    <mxGeometry x="105" y="1965" width="30" height="30" as="geometry"/>
                </mxCell>
                <mxCell id="sn1TwzaURbwhgX4UDGPd-171" value="B" style="ellipse;whiteSpace=wrap;html=1;aspect=fixed;fillColor=#000000;" vertex="1" parent="1">
                    <mxGeometry x="105" y="2045" width="30" height="30" as="geometry"/>
                </mxCell>
                <mxCell id="sn1TwzaURbwhgX4UDGPd-172" value="&lt;font color=&quot;#ff0000&quot;&gt;栈&lt;/font&gt;" style="text;html=1;align=center;verticalAlign=middle;resizable=0;points=[];autosize=1;strokeColor=none;fillColor=none;fontSize=12;" vertex="1" parent="1">
                    <mxGeometry x="-160" y="1990" width="40" height="30" as="geometry"/>
                </mxCell>
                <mxCell id="sn1TwzaURbwhgX4UDGPd-173" value="" style="endArrow=classic;html=1;fontSize=12;exitX=1;exitY=0.5;exitDx=0;exitDy=0;strokeColor=#FF0000;" edge="1" parent="1" source="sn1TwzaURbwhgX4UDGPd-163">
                    <mxGeometry width="50" height="50" relative="1" as="geometry">
                        <mxPoint x="-30" y="2010" as="sourcePoint"/>
                        <mxPoint x="40" y="2060" as="targetPoint"/>
                    </mxGeometry>
                </mxCell>
                <mxCell id="sn1TwzaURbwhgX4UDGPd-174" value="" style="endArrow=classic;html=1;strokeColor=#00FF00;fontSize=12;exitX=1;exitY=0.5;exitDx=0;exitDy=0;entryX=0;entryY=0.5;entryDx=0;entryDy=0;" edge="1" parent="1" source="sn1TwzaURbwhgX4UDGPd-168" target="sn1TwzaURbwhgX4UDGPd-171">
                    <mxGeometry width="50" height="50" relative="1" as="geometry">
                        <mxPoint x="30" y="2050" as="sourcePoint"/>
                        <mxPoint x="100" y="2060" as="targetPoint"/>
                    </mxGeometry>
                </mxCell>
                <mxCell id="sn1TwzaURbwhgX4UDGPd-175" value="" style="endArrow=classic;html=1;strokeColor=#00FF00;fontSize=12;exitX=0.5;exitY=1;exitDx=0;exitDy=0;" edge="1" parent="1" source="sn1TwzaURbwhgX4UDGPd-171">
                    <mxGeometry width="50" height="50" relative="1" as="geometry">
                        <mxPoint x="-10" y="2080" as="sourcePoint"/>
                        <mxPoint x="120" y="2125" as="targetPoint"/>
                    </mxGeometry>
                </mxCell>
                <mxCell id="sn1TwzaURbwhgX4UDGPd-176" value="" style="endArrow=classic;html=1;strokeColor=#00FF00;fontSize=12;entryX=0.5;entryY=1;entryDx=0;entryDy=0;exitX=0.5;exitY=0;exitDx=0;exitDy=0;" edge="1" parent="1" source="sn1TwzaURbwhgX4UDGPd-171" target="sn1TwzaURbwhgX4UDGPd-170">
                    <mxGeometry width="50" height="50" relative="1" as="geometry">
                        <mxPoint x="50" y="2070" as="sourcePoint"/>
                        <mxPoint x="100" y="2020" as="targetPoint"/>
                    </mxGeometry>
                </mxCell>
                <mxCell id="sn1TwzaURbwhgX4UDGPd-177" value="" style="endArrow=classic;html=1;strokeColor=#FFFF33;fontSize=12;fontColor=#FF0000;exitX=1;exitY=0.5;exitDx=0;exitDy=0;entryX=0;entryY=0.5;entryDx=0;entryDy=0;" edge="1" parent="1" source="sn1TwzaURbwhgX4UDGPd-167" target="sn1TwzaURbwhgX4UDGPd-169">
                    <mxGeometry width="50" height="50" relative="1" as="geometry">
                        <mxPoint x="10" y="2070" as="sourcePoint"/>
                        <mxPoint x="60" y="2020" as="targetPoint"/>
                    </mxGeometry>
                </mxCell>
                <mxCell id="sn1TwzaURbwhgX4UDGPd-178" value="C" style="ellipse;whiteSpace=wrap;html=1;aspect=fixed;fillColor=#18141D;" vertex="1" parent="1">
                    <mxGeometry x="-25" y="1846.5" width="30" height="30" as="geometry"/>
                </mxCell>
                <mxCell id="sn1TwzaURbwhgX4UDGPd-179" value="" style="endArrow=classic;html=1;exitX=1;exitY=0.5;exitDx=0;exitDy=0;" edge="1" parent="1" source="sn1TwzaURbwhgX4UDGPd-178">
                    <mxGeometry width="50" height="50" relative="1" as="geometry">
                        <mxPoint x="295" y="2146.5" as="sourcePoint"/>
                        <mxPoint x="55" y="1861.5" as="targetPoint"/>
                    </mxGeometry>
                </mxCell>
                <mxCell id="sn1TwzaURbwhgX4UDGPd-180" value="D" style="ellipse;whiteSpace=wrap;html=1;aspect=fixed;fillColor=#000000;" vertex="1" parent="1">
                    <mxGeometry x="-100" y="1846.5" width="30" height="30" as="geometry"/>
                </mxCell>
                <mxCell id="sn1TwzaURbwhgX4UDGPd-181" value="" style="endArrow=classic;html=1;exitX=1;exitY=0.5;exitDx=0;exitDy=0;" edge="1" parent="1">
                    <mxGeometry width="50" height="50" relative="1" as="geometry">
                        <mxPoint x="-70" y="1861.2599999999998" as="sourcePoint"/>
                        <mxPoint x="-25" y="1861.2599999999998" as="targetPoint"/>
                    </mxGeometry>
                </mxCell>
                <mxCell id="sn1TwzaURbwhgX4UDGPd-184" value="&lt;span style=&quot;color: rgb(255, 255, 51);&quot;&gt;全局表&lt;/span&gt;" style="text;html=1;align=center;verticalAlign=middle;resizable=0;points=[];autosize=1;strokeColor=none;fillColor=none;fontSize=12;fontColor=#FF0000;" vertex="1" parent="1">
                    <mxGeometry x="-170" y="2125" width="60" height="30" as="geometry"/>
                </mxCell>
                <mxCell id="sn1TwzaURbwhgX4UDGPd-186" value="A" style="ellipse;whiteSpace=wrap;html=1;aspect=fixed;fillColor=#18141D;" vertex="1" parent="1">
                    <mxGeometry x="40" y="2045" width="30" height="30" as="geometry"/>
                </mxCell>
                <mxCell id="sn1TwzaURbwhgX4UDGPd-187" value="C" style="ellipse;whiteSpace=wrap;html=1;aspect=fixed;fillColor=#666666;" vertex="1" parent="1">
                    <mxGeometry x="105" y="1965" width="30" height="30" as="geometry"/>
                </mxCell>
                <mxCell id="sn1TwzaURbwhgX4UDGPd-188" value="B" style="ellipse;whiteSpace=wrap;html=1;aspect=fixed;fillColor=#000000;" vertex="1" parent="1">
                    <mxGeometry x="105" y="2045" width="30" height="30" as="geometry"/>
                </mxCell>
                <mxCell id="sn1TwzaURbwhgX4UDGPd-189" value="D" style="ellipse;whiteSpace=wrap;html=1;aspect=fixed;fillColor=#18141D;" vertex="1" parent="1">
                    <mxGeometry x="105" y="2125" width="30" height="30" as="geometry"/>
                </mxCell>
                <mxCell id="sn1TwzaURbwhgX4UDGPd-190" value="D" style="ellipse;whiteSpace=wrap;html=1;aspect=fixed;fillColor=#18141D;" vertex="1" parent="1">
                    <mxGeometry x="-100" y="1846.5" width="30" height="30" as="geometry"/>
                </mxCell>
                <mxCell id="sn1TwzaURbwhgX4UDGPd-192" value="B" style="ellipse;whiteSpace=wrap;html=1;aspect=fixed;fillColor=#000000;" vertex="1" parent="1">
                    <mxGeometry x="55" y="1845.5" width="30" height="30" as="geometry"/>
                </mxCell>
                <mxCell id="sn1TwzaURbwhgX4UDGPd-193" value="A" style="ellipse;whiteSpace=wrap;html=1;aspect=fixed;fillColor=#000000;" vertex="1" parent="1">
                    <mxGeometry x="130" y="1845.5" width="30" height="30" as="geometry"/>
                </mxCell>
                <mxCell id="sn1TwzaURbwhgX4UDGPd-194" value="B" style="ellipse;whiteSpace=wrap;html=1;aspect=fixed;fillColor=#18141D;" vertex="1" parent="1">
                    <mxGeometry x="55" y="1845.5" width="30" height="30" as="geometry"/>
                </mxCell>
                <mxCell id="sn1TwzaURbwhgX4UDGPd-195" value="A" style="ellipse;whiteSpace=wrap;html=1;aspect=fixed;fillColor=#18141D;" vertex="1" parent="1">
                    <mxGeometry x="130" y="1845.5" width="30" height="30" as="geometry"/>
                </mxCell>
                <mxCell id="sn1TwzaURbwhgX4UDGPd-196" value="C" style="ellipse;whiteSpace=wrap;html=1;aspect=fixed;fillColor=#18141D;" vertex="1" parent="1">
                    <mxGeometry x="105" y="1965" width="30" height="30" as="geometry"/>
                </mxCell>
                <mxCell id="sn1TwzaURbwhgX4UDGPd-197" value="B" style="ellipse;whiteSpace=wrap;html=1;aspect=fixed;fillColor=#18141D;" vertex="1" parent="1">
                    <mxGeometry x="105" y="2045" width="30" height="30" as="geometry"/>
                </mxCell>
                <mxCell id="sn1TwzaURbwhgX4UDGPd-198" value="B" style="ellipse;whiteSpace=wrap;html=1;aspect=fixed;fillColor=#000000;strokeColor=#000000;" vertex="1" parent="1">
                    <mxGeometry x="130" y="1485.5" width="30" height="30" as="geometry"/>
                </mxCell>
                <mxCell id="sn1TwzaURbwhgX4UDGPd-199" value="A" style="ellipse;whiteSpace=wrap;html=1;aspect=fixed;fillColor=#000000;strokeColor=#000000;" vertex="1" parent="1">
                    <mxGeometry x="205" y="1485.5" width="30" height="30" as="geometry"/>
                </mxCell>
                <mxCell id="sn1TwzaURbwhgX4UDGPd-200" value="B" style="ellipse;whiteSpace=wrap;html=1;aspect=fixed;fillColor=#000000;strokeColor=#000000;" vertex="1" parent="1">
                    <mxGeometry x="105" y="1685" width="30" height="30" as="geometry"/>
                </mxCell>
                <mxCell id="sn1TwzaURbwhgX4UDGPd-201" value="D" style="ellipse;whiteSpace=wrap;html=1;aspect=fixed;fillColor=#000000;strokeColor=#000000;" vertex="1" parent="1">
                    <mxGeometry x="105" y="1765" width="30" height="30" as="geometry"/>
                </mxCell>
            </root>
        </mxGraphModel>
    </diagram>
</mxfile>